<?xml version="1.0" standalone="no"?>
<!DOCTYPE svg PUBLIC "-//W3C//DTD SVG 20010904//EN"
 "http://www.w3.org/TR/2001/REC-SVG-20010904/DTD/svg10.dtd">
<svg version="1.0" xmlns="http://www.w3.org/2000/svg"
 width="216.000000pt" height="216.000000pt" viewBox="0 0 216.000000 216.000000"
 preserveAspectRatio="xMidYMid meet">
<metadata>
Created by potrace 1.14, written by Peter Selinger 2001-2017
</metadata>
<g transform="translate(0.000000,216.000000) scale(0.100000,-0.100000)"
fill="#000000" stroke="none">
<path d="M625 1879 c-9 -14 -10 -169 -1 -196 l7 -22 317 -3 c311 -3 318 -3
349 -26 52 -37 84 -116 85 -205 0 -119 -39 -203 -104 -226 -19 -7 -143 -11
-332 -11 -166 0 -307 -4 -315 -9 -16 -10 -20 -196 -4 -212 5 -5 134 -9 314
-10 l305 0 41 -25 c51 -30 78 -73 91 -140 16 -94 0 -188 -40 -235 -50 -58 -59
-59 -397 -59 l-310 0 -7 -22 c-9 -27 -8 -184 1 -198 4 -6 127 -10 329 -10
l322 0 51 25 c131 66 217 236 215 429 -1 125 -36 240 -99 324 l-25 33 25 32
c37 48 80 152 93 221 7 42 8 158 1 199 -20 112 -85 238 -150 293 -74 62 -82
64 -434 64 -214 0 -324 -4 -328 -11z"/>
</g>
</svg>
